<mxfile host="app.diagrams.net" modified="2023-04-30T19:00:23.048Z" agent="Mozilla/5.0 (X11; Linux x86_64) AppleWebKit/537.36 (KHTML, like Gecko) Chrome/112.0.0.0 Safari/537.36" etag="HYfgCe-D698LLirw2e2p" version="21.1.6" type="device">
  <diagram id="C5RBs43oDa-KdzZeNtuy" name="Page-1">
    <mxGraphModel dx="404" dy="1772" grid="1" gridSize="10" guides="1" tooltips="1" connect="1" arrows="1" fold="1" page="1" pageScale="1" pageWidth="827" pageHeight="1169" math="0" shadow="1">
      <root>
        <mxCell id="WIyWlLk6GJQsqaUBKTNV-0" />
        <mxCell id="WIyWlLk6GJQsqaUBKTNV-1" parent="WIyWlLk6GJQsqaUBKTNV-0" />
        <mxCell id="-8wmlRteN6q3lcyBPd_L-4" style="edgeStyle=orthogonalEdgeStyle;rounded=0;orthogonalLoop=1;jettySize=auto;html=1;entryX=0.5;entryY=0;entryDx=0;entryDy=0;" edge="1" parent="WIyWlLk6GJQsqaUBKTNV-1" source="WIyWlLk6GJQsqaUBKTNV-3" target="-8wmlRteN6q3lcyBPd_L-2">
          <mxGeometry relative="1" as="geometry" />
        </mxCell>
        <mxCell id="-8wmlRteN6q3lcyBPd_L-15" style="edgeStyle=orthogonalEdgeStyle;rounded=0;orthogonalLoop=1;jettySize=auto;html=1;" edge="1" parent="WIyWlLk6GJQsqaUBKTNV-1" source="WIyWlLk6GJQsqaUBKTNV-3" target="-8wmlRteN6q3lcyBPd_L-3">
          <mxGeometry relative="1" as="geometry" />
        </mxCell>
        <mxCell id="WIyWlLk6GJQsqaUBKTNV-3" value="周期性探测" style="rounded=1;whiteSpace=wrap;html=1;fontSize=12;glass=0;strokeWidth=1;shadow=0;" parent="WIyWlLk6GJQsqaUBKTNV-1" vertex="1">
          <mxGeometry x="230" y="80" width="140" height="60" as="geometry" />
        </mxCell>
        <mxCell id="-8wmlRteN6q3lcyBPd_L-17" style="edgeStyle=orthogonalEdgeStyle;rounded=0;orthogonalLoop=1;jettySize=auto;html=1;" edge="1" parent="WIyWlLk6GJQsqaUBKTNV-1" source="WIyWlLk6GJQsqaUBKTNV-6">
          <mxGeometry relative="1" as="geometry">
            <mxPoint x="220" y="510" as="targetPoint" />
          </mxGeometry>
        </mxCell>
        <mxCell id="-8wmlRteN6q3lcyBPd_L-21" value="miss" style="edgeLabel;html=1;align=center;verticalAlign=middle;resizable=0;points=[];" vertex="1" connectable="0" parent="-8wmlRteN6q3lcyBPd_L-17">
          <mxGeometry x="0.103" y="-2" relative="1" as="geometry">
            <mxPoint as="offset" />
          </mxGeometry>
        </mxCell>
        <mxCell id="-8wmlRteN6q3lcyBPd_L-18" style="edgeStyle=orthogonalEdgeStyle;rounded=0;orthogonalLoop=1;jettySize=auto;html=1;" edge="1" parent="WIyWlLk6GJQsqaUBKTNV-1" source="WIyWlLk6GJQsqaUBKTNV-6">
          <mxGeometry relative="1" as="geometry">
            <mxPoint x="390" y="510" as="targetPoint" />
          </mxGeometry>
        </mxCell>
        <mxCell id="-8wmlRteN6q3lcyBPd_L-22" value="ref" style="edgeLabel;html=1;align=center;verticalAlign=middle;resizable=0;points=[];" vertex="1" connectable="0" parent="-8wmlRteN6q3lcyBPd_L-18">
          <mxGeometry x="0.2096" y="-3" relative="1" as="geometry">
            <mxPoint as="offset" />
          </mxGeometry>
        </mxCell>
        <mxCell id="WIyWlLk6GJQsqaUBKTNV-6" value="通过cpu、pid和tid确定一个key" style="rhombus;whiteSpace=wrap;html=1;shadow=0;fontFamily=Helvetica;fontSize=12;align=center;strokeWidth=1;spacing=6;spacingTop=-4;" parent="WIyWlLk6GJQsqaUBKTNV-1" vertex="1">
          <mxGeometry x="250" y="400" width="100" height="80" as="geometry" />
        </mxCell>
        <mxCell id="-8wmlRteN6q3lcyBPd_L-13" style="edgeStyle=orthogonalEdgeStyle;rounded=0;orthogonalLoop=1;jettySize=auto;html=1;entryX=0.5;entryY=0;entryDx=0;entryDy=0;" edge="1" parent="WIyWlLk6GJQsqaUBKTNV-1" source="-8wmlRteN6q3lcyBPd_L-0" target="-8wmlRteN6q3lcyBPd_L-12">
          <mxGeometry relative="1" as="geometry" />
        </mxCell>
        <mxCell id="-8wmlRteN6q3lcyBPd_L-0" value="BPF程序载入" style="strokeWidth=2;html=1;shape=mxgraph.flowchart.start_1;whiteSpace=wrap;" vertex="1" parent="WIyWlLk6GJQsqaUBKTNV-1">
          <mxGeometry x="250" y="-140" width="100" height="60" as="geometry" />
        </mxCell>
        <mxCell id="-8wmlRteN6q3lcyBPd_L-9" style="edgeStyle=orthogonalEdgeStyle;rounded=0;orthogonalLoop=1;jettySize=auto;html=1;" edge="1" parent="WIyWlLk6GJQsqaUBKTNV-1" source="-8wmlRteN6q3lcyBPd_L-2" target="-8wmlRteN6q3lcyBPd_L-7">
          <mxGeometry relative="1" as="geometry" />
        </mxCell>
        <mxCell id="-8wmlRteN6q3lcyBPd_L-2" value="on_cache_miss&lt;br&gt;探测缓存未命中事件" style="rounded=1;whiteSpace=wrap;html=1;fontSize=12;glass=0;strokeWidth=1;shadow=0;" vertex="1" parent="WIyWlLk6GJQsqaUBKTNV-1">
          <mxGeometry x="160" y="210" width="120" height="40" as="geometry" />
        </mxCell>
        <mxCell id="-8wmlRteN6q3lcyBPd_L-10" style="edgeStyle=orthogonalEdgeStyle;rounded=0;orthogonalLoop=1;jettySize=auto;html=1;entryX=0.5;entryY=0;entryDx=0;entryDy=0;" edge="1" parent="WIyWlLk6GJQsqaUBKTNV-1" source="-8wmlRteN6q3lcyBPd_L-3" target="-8wmlRteN6q3lcyBPd_L-7">
          <mxGeometry relative="1" as="geometry" />
        </mxCell>
        <mxCell id="-8wmlRteN6q3lcyBPd_L-3" value="on_cache_ref&lt;br&gt;探测缓存命中事件" style="rounded=1;whiteSpace=wrap;html=1;fontSize=12;glass=0;strokeWidth=1;shadow=0;" vertex="1" parent="WIyWlLk6GJQsqaUBKTNV-1">
          <mxGeometry x="330" y="210" width="120" height="40" as="geometry" />
        </mxCell>
        <mxCell id="-8wmlRteN6q3lcyBPd_L-16" style="edgeStyle=orthogonalEdgeStyle;rounded=0;orthogonalLoop=1;jettySize=auto;html=1;" edge="1" parent="WIyWlLk6GJQsqaUBKTNV-1" source="-8wmlRteN6q3lcyBPd_L-7" target="WIyWlLk6GJQsqaUBKTNV-6">
          <mxGeometry relative="1" as="geometry" />
        </mxCell>
        <mxCell id="-8wmlRteN6q3lcyBPd_L-7" value="trace_event处理函数记录缓存行访问计数" style="rounded=1;whiteSpace=wrap;html=1;fontSize=12;glass=0;strokeWidth=1;shadow=0;" vertex="1" parent="WIyWlLk6GJQsqaUBKTNV-1">
          <mxGeometry x="240" y="310" width="120" height="40" as="geometry" />
        </mxCell>
        <mxCell id="-8wmlRteN6q3lcyBPd_L-14" style="edgeStyle=orthogonalEdgeStyle;rounded=0;orthogonalLoop=1;jettySize=auto;html=1;entryX=0.5;entryY=0;entryDx=0;entryDy=0;" edge="1" parent="WIyWlLk6GJQsqaUBKTNV-1" source="-8wmlRteN6q3lcyBPd_L-12" target="WIyWlLk6GJQsqaUBKTNV-3">
          <mxGeometry relative="1" as="geometry" />
        </mxCell>
        <mxCell id="-8wmlRteN6q3lcyBPd_L-12" value="通过用户态设定perf-event性能事件的属性参数及采样事件周期等" style="rounded=1;whiteSpace=wrap;html=1;fontSize=12;glass=0;strokeWidth=1;shadow=0;" vertex="1" parent="WIyWlLk6GJQsqaUBKTNV-1">
          <mxGeometry x="230" y="-30" width="140" height="60" as="geometry" />
        </mxCell>
        <mxCell id="-8wmlRteN6q3lcyBPd_L-25" style="edgeStyle=orthogonalEdgeStyle;rounded=0;orthogonalLoop=1;jettySize=auto;html=1;" edge="1" parent="WIyWlLk6GJQsqaUBKTNV-1" source="-8wmlRteN6q3lcyBPd_L-19" target="-8wmlRteN6q3lcyBPd_L-24">
          <mxGeometry relative="1" as="geometry" />
        </mxCell>
        <mxCell id="-8wmlRteN6q3lcyBPd_L-19" value="infoq Maps保存miss的触发事件次数" style="rounded=1;whiteSpace=wrap;html=1;fontSize=12;glass=0;strokeWidth=1;shadow=0;" vertex="1" parent="WIyWlLk6GJQsqaUBKTNV-1">
          <mxGeometry x="160" y="510" width="120" height="40" as="geometry" />
        </mxCell>
        <mxCell id="-8wmlRteN6q3lcyBPd_L-26" style="edgeStyle=orthogonalEdgeStyle;rounded=0;orthogonalLoop=1;jettySize=auto;html=1;" edge="1" parent="WIyWlLk6GJQsqaUBKTNV-1" source="-8wmlRteN6q3lcyBPd_L-20" target="-8wmlRteN6q3lcyBPd_L-24">
          <mxGeometry relative="1" as="geometry" />
        </mxCell>
        <mxCell id="-8wmlRteN6q3lcyBPd_L-20" value="infoq Maps保存ref的触发事件次数" style="rounded=1;whiteSpace=wrap;html=1;fontSize=12;glass=0;strokeWidth=1;shadow=0;" vertex="1" parent="WIyWlLk6GJQsqaUBKTNV-1">
          <mxGeometry x="330" y="510" width="120" height="40" as="geometry" />
        </mxCell>
        <mxCell id="-8wmlRteN6q3lcyBPd_L-29" style="edgeStyle=orthogonalEdgeStyle;rounded=0;orthogonalLoop=1;jettySize=auto;html=1;entryX=0.5;entryY=0;entryDx=0;entryDy=0;" edge="1" parent="WIyWlLk6GJQsqaUBKTNV-1" source="-8wmlRteN6q3lcyBPd_L-24" target="-8wmlRteN6q3lcyBPd_L-28">
          <mxGeometry relative="1" as="geometry" />
        </mxCell>
        <mxCell id="-8wmlRteN6q3lcyBPd_L-24" value="用户态程序定时获取并计算数据，并清除数据信息" style="rounded=1;whiteSpace=wrap;html=1;fontSize=12;glass=0;strokeWidth=1;shadow=0;" vertex="1" parent="WIyWlLk6GJQsqaUBKTNV-1">
          <mxGeometry x="230" y="600" width="140" height="50" as="geometry" />
        </mxCell>
        <mxCell id="-8wmlRteN6q3lcyBPd_L-28" value="等待下一个周期次数" style="rounded=1;whiteSpace=wrap;html=1;fontSize=12;glass=0;strokeWidth=1;shadow=0;" vertex="1" parent="WIyWlLk6GJQsqaUBKTNV-1">
          <mxGeometry x="230" y="690" width="140" height="50" as="geometry" />
        </mxCell>
      </root>
    </mxGraphModel>
  </diagram>
</mxfile>
